# xmcd CD database file
#
# Track frame offsets:
#	150
#	19148
#	38451
#	56997
#	77578
#	97056
#	117175
#	136682
#	158893
#	179127
#	198062
#
# Disc length: 2902 seconds
#
# Revision: 0
# Processed by: cddbd v1.5.2PL0 Copyright (c) Steve Scherf et al.
# Submitted via: CDex 1.51
#
DISCID=8b0b540b
DTITLE=Roberto Delgado and Orquesta - Salseando.....!
DYEAR=1900
DGENRE=Salsa
TTITLE0=Mariana Soba
TTITLE1=Con esta orquesta
TTITLE2=Como se cura una herida
TTITLE3=Aventura
TTITLE4=Ciclo
TTITLE5=Quisiera
TTITLE6=El milagro del amor
TTITLE7=Algo contigo
TTITLE8=Llévantela
TTITLE9=Aprovecha pollo
TTITLE10=Fiel amiga
EXTD=
EXTT0=
EXTT1=
EXTT2=
EXTT3=
EXTT4=
EXTT5=
EXTT6=
EXTT7=
EXTT8=
EXTT9=
EXTT10=
PLAYORDER=
